PathFileType	4	(X/Y/Z)	/Users/niels/Desktop/University/Third Semester/Perception and Action/Exam/Gymnastics Motion Tracking/Code for Gym Tracking/Analyzed Data/Webcam_Backflip/id4_2_pure_Sports2D/id4_2_pure_Sports2D_px_person00.trc
DataRate	CameraRate	NumFrames	NumMarkers	Units	OrigDataRate	OrigDataStartFrame	OrigNumFrames
29.8125	29.8125	7	22	m	29.8125	0	160
Frame#	Time	Hip			RHip			RKnee			RAnkle			RBigToe			RSmallToe			RHeel			LHip			LKnee			LAnkle			LBigToe			LSmallToe			LHeel			Neck			Head			Nose			RShoulder			RElbow			RWrist			LShoulder			LElbow			LWrist		
		X1	Y1	Z1	X2	Y2	Z2	X3	Y3	Z3	X4	Y4	Z4	X5	Y5	Z5	X6	Y6	Z6	X7	Y7	Z7	X8	Y8	Z8	X9	Y9	Z9	X10	Y10	Z10	X11	Y11	Z11	X12	Y12	Z12	X13	Y13	Z13	X14	Y14	Z14	X15	Y15	Z15	X16	Y16	Z16	X17	Y17	Z17	X18	Y18	Z18	X19	Y19	Z19	X20	Y20	Z20	X21	Y21	Z21	X22	Y22	Z22
0	0.0	0.9552631341703463	-0.5463751784941553	0.0	0.9569335976974188	-0.5463823610548434	0.0	0.9973872891642546	-0.6511233453444659	0.0	0.961709959871457	-0.7540298486514186	0.0	0.9785049774004776	-0.7911779923706255	0.0	0.970086683518015	-0.7894818113031403	0.0	0.9532336951464502	-0.7709005564009909	0.0	0.9502095385264325	-0.5446968169265118	0.0	0.9889534746456741	-0.6477654912281205	0.0	0.9617261507314538	-0.7506065987617528	0.0	0.9819930500889592	-0.7793242666840267	0.0	0.9684917835099298	-0.7793602620837171	0.0	0.9515953756476793	-0.762447416450869	0.0	0.8812066392455182	-0.4317038111529199	0.0	0.8256169845378738	-0.37944170389623216	0.0	0.8677329029812924	-0.3878382175596939	0.0	0.8896499600874849	-0.4418430395124038	0.0	0.8827685784411433	-0.39638979887033454	0.0	0.859120753362786	-0.3492809658218416	0.0	0.884584056050276	-0.43340405650381447	0.0	0.9114561586272983	-0.3879628193585141	0.0	0.8912428976230811	-0.33580988515457383	0.0
1	0.03354297693920335	0.9535157086710428	-0.5033217601937682	0.0	0.9561866139682555	-0.5043190456874921	0.0	1.0187847932127125	-0.5979789826658385	0.0	0.9790667182902052	-0.7007244030948767	0.0	0.9892717062401646	-0.7455532075720699	0.0	0.9825905927726301	-0.7440779924181348	0.0	0.970205780874109	-0.7154208418599232	0.0	0.9500543166436741	-0.5022503341406923	0.0	1.0082672460720832	-0.5940101441806688	0.0	0.9790323850373068	-0.6973878837317541	0.0	0.9931323133679364	-0.7335377860251233	0.0	0.9806415002375546	-0.7324946791684935	0.0	0.9688492505196984	-0.7103209924852696	0.0	0.8622679914625645	-0.42071891638340564	0.0	0.8000367711830197	-0.3850598264962253	0.0	0.8399095983851184	-0.3874915209392223	0.0	0.8721713598417975	-0.4275888974863047	0.0	0.8634415511312346	-0.3869432462688747	0.0	0.8367828455153243	-0.3398126643576307	0.0	0.8674422930931114	-0.42208399693169674	0.0	0.8888699895627381	-0.38264996567654425	0.0	0.8743142393276206	-0.3399419605046314	0.0
2	0.0670859538784067	0.9514566952206974	-0.4631907168974904	0.0	0.9546604246182088	-0.46501866259119834	0.0	1.0378219230909371	-0.5435379205085098	0.0	0.9974705555947372	-0.6464624768785664	0.0	1.0041065216003062	-0.6962885769749786	0.0	0.9987766986982431	-0.695059056151641	0.0	0.988591337187696	-0.6596506793868011	0.0	0.9492504147213384	-0.46279608427951174	0.0	1.0258866854070687	-0.539497457565855	0.0	0.9973563902817948	-0.6431335872726434	0.0	1.0089566582956135	-0.6842716995567665	0.0	0.9971476004705726	-0.6818878906193009	0.0	0.9878783857521372	-0.656692329697913	0.0	0.8449681045075024	-0.4117755163298261	0.0	0.7777079111563672	-0.39311859681551	0.0	0.815063994767187	-0.3884241642477509	0.0	0.8562711810038816	-0.4156554506941854	0.0	0.8478091519113186	-0.37855674948566037	0.0	0.8189921272389736	-0.33138211033048803	0.0	0.8518559894277862	-0.4126156933330709	0.0	0.8694608560317478	-0.3772334876198499	0.0	0.858281590149505	-0.3420626010646897	0.0
3	0.10062893081761004	0.9490873561672304	-0.428243734636275	0.0	0.9521736461613135	-0.4305813816921406	0.0	1.0518205720562679	-0.4873259929042962	0.0	1.017074134583637	-0.5905936781257151	0.0	1.0250352175237682	-0.6403842602030371	0.0	1.0205734072954342	-0.6396376215690144	0.0	1.0088383450299498	-0.6034428123944661	0.0	0.9474867153121842	-0.4286177280385575	0.0	1.0394623632517237	-0.48409327193656604	0.0	1.0167623486584296	-0.5871064856440188	0.0	1.0309734229325225	-0.6287778683555534	0.0	1.0197326410659289	-0.6253370354883125	0.0	1.008993421827286	-0.6010161574998067	0.0	0.8309224282079841	-0.4064522440087678	0.0	0.7614156980727292	-0.40513818915322963	0.0	0.7956485065717542	-0.39161441465049385	0.0	0.8434194297871249	-0.4076761150666335	0.0	0.8388910121939023	-0.37177298758111493	0.0	0.8092700528027491	-0.3240805808654587	0.0	0.8392788972730801	-0.4065160211796463	0.0	0.8554064158996803	-0.371756175889936	0.0	0.8444393180504108	-0.34044223593858863	0.0
4	0.1341719077568134	0.9468168856078102	-0.39976855620243334	0.0	0.9492628440063955	-0.4021491482292569	0.0	1.0581808190660782	-0.43019375023717105	0.0	1.0369967449244135	-0.5329484415698029	0.0	1.051003264753185	-0.5761153935422222	0.0	1.0471600864723443	-0.5764087622659565	0.0	1.03029581130005	-0.5467725352330439	0.0	0.9450312143723768	-0.40094995751045936	0.0	1.046423274547363	-0.4287243102335178	0.0	1.036305118640201	-0.5290782348339474	0.0	1.0569019491437857	-0.5654612987131912	0.0	1.0467875856155844	-0.562088994684848	0.0	1.031170544773368	-0.5436462097264902	0.0	0.8214668977082762	-0.40556121560442004	0.0	0.752932427988014	-0.4212865650561426	0.0	0.7830458061415412	-0.3978067030926054	0.0	0.8347045569121545	-0.40419467058509817	0.0	0.8377537256945757	-0.3662880988540519	0.0	0.8090126387445347	-0.3168159929028964	0.0	0.8308532399981029	-0.40458691866997054	0.0	0.8477007208944825	-0.3664400502116809	0.0	0.835228311501519	-0.3343172368602632	0.0
5	0.16771488469601675	0.9453530430033743	-0.37795122817633137	0.0	0.9469631007352483	-0.3798942761848897	0.0	1.0549312535276762	-0.37449132194841306	0.0	1.0549913744540391	-0.47383323949181877	0.0	1.077352736243523	-0.5035491106194627	0.0	1.0743821421239652	-0.5055223575004546	0.0	1.0509703795728533	-0.48931178512704504	0.0	0.9427476337513161	-0.3798419249759216	0.0	1.0446800175457016	-0.37541799496383443	0.0	1.053650205353476	-0.46933584537948775	0.0	1.0812143557173037	-0.4942729437019338	0.0	1.073131268674202	-0.492319404110784	0.0	1.0520189906301283	-0.48506080956191666	0.0	0.8175083162047229	-0.4090234688166033	0.0	0.7529287433405902	-0.44042020784215213	0.0	0.7776784391893404	-0.407532989611	0.0	0.8307460909504829	-0.4047805593702541	0.0	0.8430219503291372	-0.3613893863992072	0.0	0.8170094564587373	-0.308367587037116	0.0	0.8273605602790018	-0.4066833777711185	0.0	0.8462948407949861	-0.3616357933769771	0.0	0.8332877436775773	-0.3243924316192491	0.0
6	0.20125786163522008	0.9454314407425043	-0.36198143321633697	0.0	0.9464157910239628	-0.3632075536850314	0.0	1.041432673553976	-0.3237904594257124	0.0	1.0674761571614408	-0.41431422070226104	0.0	1.0967399077643982	-0.4252735628085325	0.0	1.0954904450976963	-0.4291265142457947	0.0	1.067454520121657	-0.4306266456578055	0.0	0.9418099765090546	-0.3643431104349139	0.0	1.0333650203033902	-0.3270667779689335	0.0	1.0650033969632857	-0.40903781685361523	0.0	1.096437278492085	-0.417722491810259	0.0	1.090896549660978	-0.4182208264701674	0.0	1.0676009826600583	-0.42584081917802374	0.0	0.819422496707568	-0.41592620903463906	0.0	0.7610830007062248	-0.4605222916495676	0.0	0.7794160389000258	-0.4207684471056306	0.0	0.8317271366267427	-0.40842312965421046	0.0	0.8519820553589582	-0.35681433016930814	0.0	0.8300077473966183	-0.2987688304386458	0.0	0.8291830846833461	-0.4118215937335193	0.0	0.8501057246268499	-0.35778892255541894	0.0	0.839044646719937	-0.31260614414316623	0.0
